#!OML:ASF X:\für Bonn\!DataBase\2005_08_10_Bjorn_Final\c3d\bjorn.ASF
:FULLY-SPECIFIED
:DEGREES
404
root -0.427165 1.66744 10.6064 -2441.78 -8.12363 198.393
lowerback 16.2968 7.6557 -8.88879
upperback 20.1099 5.89119 -2.22301
thorax 12.816 -0.177747 1.5156
lowerneck 7.75482 -0.658511 3.39284
upperneck 29.5278 -6.23878 3.92482
head 8.03931 -4.38671 0.184969
rclavicle 5.08889e-014 -8.90555e-014
rhumerus -361.1 -10.0348 283.901
rradius 28.4979
rwrist 6.38818
rhand -11.7595 11.3156
rfingers 7.12502
rthumb 14.2887 -18.1728
lclavicle 5.08889e-014 -8.90555e-014
lhumerus 7.71067 -9.69659 81.4868
lradius 45.2048
lwrist -33.8662
lhand -51.9315 -25.6372
lfingers 7.12502
lthumb -24.4418 722.824
rfemur -206.015 -153.462 160.439
rtibia 103.018
rfoot 42.7106 12.6212
rtoes 2.85316
lfemur 138.478 178.674 164.255
ltibia 108.019
lfoot 33.7306 -2.83232
ltoes 1.20287
405
root -0.435381 1.66343 10.6293 -2441.8 -8.10037 198.467
lowerback 15.8907 7.36956 -8.84893
upperback 19.5576 5.72103 -2.67181
thorax 12.3915 -0.0832355 1.06921
lowerneck 7.5913 -0.811502 3.1927
upperneck 29.1047 -6.11192 3.39468
head 7.89362 -4.3219 0.0607391
rclavicle 3.49861e-014 -7.15625e-014
rhumerus -361.746 -8.83605 283.683
rradius 29.6044
rwrist 5.47797
rhand -11.5952 11.3312
rfingers 7.12502
rthumb 14.4471 -18.1459
lclavicle 3.49861e-014 -7.15625e-014
lhumerus 7.06765 -9.84062 80.8922
lradius 45.5266
lwrist -34.1856
lhand -51.7108 -25.8686
lfingers 7.12502
lthumb -24.2303 722.621
rfemur -205.96 -153.354 160.19
rtibia 103.149
rfoot 42.8079 12.8105
rtoes 3.14844
lfemur 138.49 178.627 164.264
ltibia 107.982
lfoot 33.74 -2.82861
ltoes 1.20043
406
root -0.443162 1.6596 10.6522 -2441.8 -8.09532 198.537
lowerback 15.695 7.07423 -8.76683
upperback 18.8814 5.50879 -3.15952
thorax 11.7084 0.0147645 0.556994
lowerneck 7.62253 -0.94232 2.92402
upperneck 28.4447 -5.90738 2.86808
head 7.63555 -4.21891 -0.0339562
rclavicle -2.54444e-014 1.01778e-013
rhumerus -362.682 -7.54923 283.45
rradius 30.8978
rwrist 4.64665
rhand -11.4892 11.3461
rfingers 7.12502
rthumb 14.5492 -18.1237
lclavicle -2.54444e-014 1.01778e-013
lhumerus 6.15904 -10.1131 80.2147
lradius 45.9702
lwrist -34.3946
lhand -51.4823 -26.0625
lfingers 7.12502
lthumb -24.0112 722.456
rfemur -205.928 -153.221 159.938
rtibia 103.28
rfoot 42.8896 13.0564
rtoes 3.18607
lfemur 138.476 178.585 164.25
ltibia 107.945
lfoot 33.7566 -2.81182
ltoes 1.24973
407
root -0.451296 1.65552 10.6753 -2441.77 -8.07266 198.599
lowerback 15.6118 6.78282 -8.63255
upperback 18.1585 5.28027 -3.61608
thorax 10.9157 0.106775 0.0510197
lowerneck 7.58077 -1.07958 2.52496
upperneck 27.686 -5.69078 2.35368
head 7.36177 -4.1018 -0.0991212
rclavicle 0 -7.95139e-014
rhumerus -363.762 -6.14347 283.296
rradius 32.3526
rwrist 3.76411
rhand -11.4408 11.4598
rfingers 7.12502
rthumb 14.5958 -18.0066
lclavicle 0 -7.95139e-014
lhumerus 5.11469 -10.504 79.5522
lradius 46.5734
lwrist -34.4267
lhand -51.2368 -26.2993
lfingers 7.12502
lthumb -23.7757 722.25
rfemur -205.916 -153.093 159.743
rtibia 103.39
rfoot 42.9595 13.1599
rtoes 3.51567
lfemur 138.425 178.551 164.252
ltibia 107.905
lfoot 33.7645 -2.75761
ltoes 1.32908
408
root -0.459391 1.65204 10.6985 -2441.72 -8.01648 198.646
lowerback 15.5154 6.49074 -8.5206
upperback 17.5236 5.03395 -3.94925
thorax 10.2364 0.154249 -0.308923
lowerneck 7.11907 -1.29211 1.85456
upperneck 26.8688 -5.50419 1.72038
head 7.1415 -3.98626 -0.163311
rclavicle 2.8625e-014 -4.29375e-014
rhumerus -364.68 -4.58342 283.306
rradius 33.9626
rwrist 2.83963
rhand -11.4364 11.5355
rfingers 7.12502
rthumb 14.6 -17.9306
lclavicle 2.8625e-014 -4.29375e-014
lhumerus 4.13614 -10.8518 78.9885
lradius 47.341
lwrist -34.328
lhand -50.9726 -26.4437
lfingers 7.12502
lthumb -23.5223 722.138
rfemur -205.921 -152.958 159.622
rtibia 103.48
rfoot 42.9852 13.3558
rtoes 3.42881
lfemur 138.387 178.519 164.282
ltibia 107.84
lfoot 33.7777 -2.76362
ltoes 1.2783
409
root -0.466979 1.64848 10.7218 -2441.66 -7.94482 198.676
lowerback 15.4236 6.2108 -8.41859
upperback 16.9259 4.791 -4.22346
thorax 9.60076 0.184573 -0.6015
lowerneck 6.36155 -1.60768 1.18857
upperneck 26.0353 -5.41425 0.948494
head 6.96702 -3.90254 -0.281625
rclavicle 6.36111e-014 1.1609e-013
rhumerus -365.548 -2.90443 283.416
rradius 35.6866
rwrist 1.91072
rhand -11.5091 11.6128
rfingers 7.12502
rthumb 14.53 -17.8583
lclavicle 6.36111e-014 1.1609e-013
lhumerus 3.15478 -11.3653 78.3724
lradius 48.2574
lwrist -33.9768
lhand -50.7493 -26.6347
lfingers 7.12502
lthumb -23.3081 721.974
rfemur -205.933 -152.848 159.556
rtibia 103.543
rfoot 42.9932 13.4748
rtoes 3.52729
lfemur 138.346 178.473 164.332
ltibia 107.755
lfoot 33.803 -2.74551
ltoes 1.25121
410
root -0.475652 1.64522 10.744 -2441.6 -7.84587 198.7
lowerback 15.2999 5.9241 -8.33835
upperback 16.4094 4.53275 -4.4064
thorax 9.07712 0.182174 -0.784127
lowerneck 5.40578 -1.95769 0.520464
upperneck 25.0595 -5.33053 0.113008
head 6.78315 -3.80484 -0.41925
rclavicle -5.40694e-014 6.04305e-014
rhumerus -366.278 -1.06749 283.663
rradius 37.468
rwrist 1.14719
rhand -11.832 11.7683
rfingers 7.12502
rthumb 14.2189 -17.725
lclavicle -5.40694e-014 6.04305e-014
lhumerus 2.26286 -11.9508 77.7419
lradius 49.2088
lwrist -33.4846
lhand -50.6461 -26.7062
lfingers 7.12502
lthumb -23.2091 721.915
rfemur -205.929 -152.741 159.532
rtibia 103.571
rfoot 42.9694 13.5913
rtoes 3.42576
lfemur 138.329 178.461 164.402
ltibia 107.669
lfoot 33.8069 -2.72698
ltoes 1.15884
411
root -0.484685 1.64204 10.7658 -2441.57 -7.74454 198.738
lowerback 15.2145 5.64768 -8.26408
upperback 15.9252 4.27378 -4.54753
thorax 8.57172 0.167018 -0.921874
lowerneck 4.51314 -2.27835 -0.0721891
upperneck 23.8818 -5.22317 -0.662959
head 6.53086 -3.68111 -0.542057
rclavicle 3.49861e-014 2.54444e-014
rhumerus -367.016 0.838407 284.015
rradius 39.38
rwrist 0.582928
rhand -12.4186 12.0113
rfingers 7.12502
rthumb 13.6536 -17.5209
lclavicle 3.49861e-014 2.54444e-014
lhumerus 1.37635 -12.6589 77.0714
lradius 50.1437
lwrist -33.0574
lhand -50.8541 -26.8269
lfingers 7.12502
lthumb -23.4086 721.769
rfemur -205.873 -152.634 159.508
rtibia 103.564
rfoot 42.9289 13.7157
rtoes 3.26779
lfemur 138.324 178.482 164.457
ltibia 107.583
lfoot 33.8187 -2.67943
ltoes 1.06929
412
root -0.493534 1.63807 10.7848 -2441.59 -7.62729 198.781
lowerback 15.1989 5.38871 -8.16086
upperback 15.477 4.01979 -4.6696
thorax 8.07502 0.145296 -1.06048
lowerneck 3.80555 -2.61245 -0.513232
upperneck 22.3513 -5.13938 -1.46017
head 6.1379 -3.54809 -0.683952
rclavicle 1.27222e-014 -7.95139e-015
rhumerus -367.754 2.82831 284.442
rradius 41.4372
rwrist 0.0975606
rhand -13.1216 12.2965
rfingers 7.12502
rthumb 12.976 -17.28
lclavicle 1.27222e-014 -7.95139e-015
lhumerus 0.517204 -13.4731 76.3372
lradius 51.0945
lwrist -32.6701
lhand -51.1961 -26.8603
lfingers 7.12502
lthumb -23.7367 721.694
rfemur -205.748 -152.556 159.481
rtibia 103.535
rfoot 42.9188 13.7161
rtoes 3.41334
lfemur 138.376 178.513 164.526
ltibia 107.495
lfoot 33.7912 -2.65692
ltoes 0.843175
413
root -0.502339 1.6346 10.8037 -2441.64 -7.52849 198.794
lowerback 15.234 5.16304 -8.05047
upperback 15.0498 3.79302 -4.79102
thorax 7.57833 0.128504 -1.20854
lowerneck 3.41481 -2.99701 -0.82829
upperneck 20.3527 -5.1535 -2.26344
head 5.54985 -3.44059 -0.833071
rclavicle -2.54444e-014 -4.45278e-014
rhumerus -368.484 4.77819 284.907
rradius 43.5796
rwrist -0.375081
rhand -13.7687 12.5841
rfingers 7.12502
rthumb 12.3522 -17.031
lclavicle -2.54444e-014 -4.45278e-014
lhumerus -0.326854 -14.4054 75.5589
lradius 52.1075
lwrist -32.2175
lhand -51.6052 -26.893
lfingers 7.12502
lthumb -24.129 721.61
rfemur -205.61 -152.516 159.454
rtibia 103.482
rfoot 42.8746 13.7711
rtoes 3.3384
lfemur 138.484 178.53 164.577
ltibia 107.4
lfoot 33.7682 -2.66619
ltoes 0.576545
414
root -0.510721 1.63027 10.821 -2441.7 -7.43514 198.836
lowerback 15.2769 4.94013 -7.94504
upperback 14.6557 3.56342 -4.89813
thorax 7.1175 0.101252 -1.34002
lowerneck 3.07445 -3.33065 -1.20069
upperneck 18.2735 -5.20671 -2.81859
head 4.9487 -3.34815 -0.895979
rclavicle 5.40694e-014 -9.54166e-014
rhumerus -369.186 6.67476 285.403
rradius 45.8021
rwrist -0.954173
rhand -14.3427 12.882
rfingers 7.12502
rthumb 11.7986 -16.7656
lclavicle 5.40694e-014 -9.54166e-014
lhumerus -1.13495 -15.3762 74.7667
lradius 53.2351
lwrist -31.731
lhand -52.0058 -26.8334
lfingers 7.12502
lthumb -24.5131 721.618
rfemur -205.452 -152.466 159.413
rtibia 103.413
rfoot 42.863 13.7352
rtoes 3.47098
lfemur 138.586 178.587 164.616
ltibia 107.303
lfoot 33.7656 -2.64091
ltoes 0.386567
415
root -0.519768 1.6256 10.839 -2441.76 -7.33666 198.861
lowerback 15.3254 4.72969 -7.86271
upperback 14.2715 3.34516 -4.96852
thorax 6.66335 0.07228 -1.42094
lowerneck 2.73829 -3.5707 -1.7447
upperneck 16.0599 -5.27946 -2.99801
head 4.81747 -3.26993 -0.923916
rclavicle 3.81667e-014 -4.6118e-014
rhumerus -369.832 8.50457 285.955
rradius 48.0203
rwrist -1.57246
rhand -14.8024 13.1792
rfingers 7.12502
rthumb 11.3554 -16.4934
lclavicle 3.81667e-014 -4.6118e-014
lhumerus -1.94753 -16.2636 74.0559
lradius 54.4181
lwrist -31.3221
lhand -52.4261 -26.8119
lfingers 7.12502
lthumb -24.9159 721.584
rfemur -205.313 -152.433 159.406
rtibia 103.332
rfoot 42.8386 13.7049
rtoes 3.49243
lfemur 138.7 178.657 164.651
ltibia 107.201
lfoot 33.7287 -2.5715
ltoes 0.200202
416
root -0.528503 1.62128 10.8573 -2441.82 -7.2357 198.886
lowerback 15.378 4.53407 -7.75766
upperback 13.8962 3.14348 -5.05246
thorax 6.22088 0.0492344 -1.53147
lowerneck 2.17051 -3.74441 -2.27303
upperneck 14.6597 -5.31918 -3.0079
head 4.42303 -3.20837 -0.806963
rclavicle 0 -3.18055e-014
rhumerus -370.492 10.1031 286.472
rradius 50.2842
rwrist -1.94819
rhand -15.1715 13.4397
rfingers 7.12502
rthumb 10.9993 -16.2521
lclavicle 0 -3.18055e-014
lhumerus -2.73893 -17.1827 73.3275
lradius 55.6003
lwrist -30.9165
lhand -52.8811 -26.7504
lfingers 7.12502
lthumb -25.3518 721.584
rfemur -205.157 -152.411 159.418
rtibia 103.227
rfoot 42.8128 13.6494
rtoes 3.53066
lfemur 138.82 178.724 164.69
ltibia 107.089
lfoot 33.7283 -2.54932
ltoes -0.0383782
417
root -0.536618 1.61604 10.874 -2441.9 -7.11639 198.91
lowerback 15.476 4.34533 -7.64073
upperback 13.5151 2.94455 -5.1131
thorax 5.74865 0.0261293 -1.62493
lowerneck 1.59967 -3.88698 -2.82281
upperneck 13.4363 -5.3679 -2.8736
head 4.10924 -3.16418 -0.648727
rclavicle 7.31528e-014 0
rhumerus -371.193 11.6323 287.03
rradius 52.6535
rwrist -2.12568
rhand -15.5165 13.6104
rfingers 7.12502
rthumb 10.6665 -16.0989
lclavicle 7.31528e-014 0
lhumerus -3.56009 -18.1033 72.6354
lradius 56.8062
lwrist -30.5565
lhand -53.3572 -26.7002
lfingers 7.12502
lthumb -25.8079 721.569
rfemur -204.997 -152.425 159.466
rtibia 103.12
rfoot 42.7673 13.5381
rtoes 3.67034
lfemur 138.959 178.802 164.753
ltibia 106.977
lfoot 33.7326 -2.46098
ltoes -0.100091
418
root -0.545398 1.61118 10.891 -2441.97 -7.0317 198.932
lowerback 15.5411 4.18983 -7.55001
upperback 13.194 2.7832 -5.1611
thorax 5.36093 0.0076017 -1.69634
lowerneck 0.890503 -4.04064 -3.25905
upperneck 12.3264 -5.44365 -2.73038
head 3.86652 -3.13769 -0.518461
rclavicle 6.36111e-014 -4.37326e-014
rhumerus -371.814 12.9547 287.646
rradius 55.0786
rwrist -2.09371
rhand -15.9049 13.7002
rfingers 7.12502
rthumb 10.2919 -16.028
lclavicle 6.36111e-014 -4.37326e-014
lhumerus -4.21027 -19.0136 71.94
lradius 57.976
lwrist -30.3425
lhand -53.8234 -26.4807
lfingers 7.12502
lthumb -26.2543 721.723
rfemur -204.839 -152.433 159.484
rtibia 102.996
rfoot 42.7336 13.4554
rtoes 3.6658
lfemur 139.1 178.896 164.767
ltibia 106.858
lfoot 33.7086 -2.34447
ltoes -0.212715
